<svg width="738" height="728" viewBox="0 0 738 728" fill="none" xmlns="http://www.w3.org/2000/svg">
<path d="M73.7139 0.360015C73.7983 0.35064 73.8827 0.341275 73.9677 0.3319C89.7539 -0.0712245 106.237 0.219385 121.955 0.203135L216.851 0.0793866L274.19 0.151275C286.58 0.113775 305.711 -0.611237 317.18 1.48314C330.445 3.79939 342.806 9.75188 352.888 18.6781C373.071 36.4938 378.196 56.4769 379.934 82.1275C385.44 67.9369 391.34 57.3775 403.009 47.36C426.209 27.4394 452.34 29.6913 480.621 29.6869L549.571 29.7256L625.884 29.6894C661.521 29.6194 694.865 24.9175 720.278 55.7613C727.921 65.09 733.146 76.1625 735.484 87.995C737.69 99.0606 737.115 111.275 737.109 122.646L737.096 163.297L737.234 205.172C737.284 222.7 738.484 235.596 730.846 251.966C723.69 267.298 715.315 274.469 702.515 284.818C716.796 339.011 717.265 395.919 703.89 450.344C686.878 522.907 648.09 588.532 592.721 638.426C573.64 655.313 557.778 666.194 536.296 679.419C457.003 724.457 373.928 738.313 284.407 718.244C198.776 699.051 122.104 642.313 75.5864 568.438C52.3302 531.501 24.1745 468.076 34.7145 424.107C41.0752 397.569 58.4252 374.776 81.7595 360.888C106.286 346.288 127.528 340.601 155.323 347.269C160.253 322.161 165.265 307.222 175.268 284.012C139.335 283.533 102.467 285.077 66.7602 283.134C32.1389 281.251 1.08142 247.686 0.31079 213.339C-0.239835 188.821 0.105799 163.38 0.120799 138.539L0.160167 95.0075C0.176417 83.6787 -0.331703 69.8106 2.05205 58.9413C4.88892 46.5694 10.8546 35.1325 19.3777 25.7269C34.4171 9.14689 51.5483 1.44564 73.7139 0.360015Z" fill="#FEFEFE"/>
<path d="M73.3507 40.9424C74.2732 40.8936 75.1963 40.8536 76.1194 40.8224C91.6613 40.2811 110.71 40.7349 126.436 40.7361L225.173 40.7418L279.546 40.6567C288.529 40.6442 301.781 39.6924 310.27 41.3955C331.155 45.5855 338.108 62.2361 338.281 80.8536L338.286 165.048C338.327 180.928 339.265 201.642 337.074 217.256C335.65 224.813 331.545 229.972 326.186 234.982C306.19 253.676 281.229 228.175 282.129 265.869C282.253 274.868 283.336 287.99 271.699 290.062C261.495 291.612 254.782 283.787 247.634 278.003C234.497 267.38 220.983 253.485 206.834 244.572C203.561 242.511 178.254 243.312 172.694 243.307L108.419 243.277C99.0707 243.282 81.9194 243.765 73.1169 243.007C66.4032 242.452 59.9857 239.997 54.6169 235.927C38.5182 223.651 41.4526 205.73 41.4732 187.927L41.4907 142.508L41.4707 98.4436C41.4301 89.8943 40.8888 79.7874 41.9332 71.3517C44.0226 54.4836 56.6001 42.9793 73.3507 40.9424Z" fill="#0AA7E7"/>
<path d="M178.615 71.9487L202.763 71.9812L202.74 89.0144L259.658 88.98L259.624 110.141L241.381 110.174C236.865 136.575 227.998 153.377 208.865 171.841C227.416 181.218 239.576 184.409 259.351 189.156L259.133 211.634C236.557 207.588 217.3 201.074 197.185 190.018L190.205 185.724C171.665 197.434 142.968 209.094 120.901 211.6L120.902 188.831C141.134 184.479 152.408 180.128 170.836 171.594C151.57 153.211 143.767 135.823 138.596 110.121L120.978 110.212L120.875 88.9881L178.696 89.0112C178.817 83.4106 178.672 77.5694 178.615 71.9487Z" fill="#FEFEFE"/>
<path d="M161.526 110.301C179.023 109.51 201.082 110.141 218.759 110.196C215.293 124.36 212.064 132.381 203.561 144.351C199.217 149.992 195.028 153.936 189.811 158.726C174.233 144.889 165.9 130.591 161.526 110.301Z" fill="#0BA8DF"/>
<path d="M652.24 69.7618C668.978 69.4081 685.122 72.4918 692.559 89.9355C694.103 93.6487 695.065 97.5799 695.403 101.589C695.865 106.952 695.597 116.601 695.603 122.393L695.797 155.842C695.878 178.246 696.022 200.586 695.778 223.057C696.522 234.489 685.903 249.979 674.453 253.256C660.078 257.368 637.459 255.751 622.159 255.726L572.115 255.656C564.097 255.646 553.965 254.48 546.265 256.743C534.234 260.279 503.747 296.818 489.047 302.198C485.928 303.341 482.49 303.421 479.447 301.974C475.584 300.134 473.703 297.093 472.259 293.223C471.947 287.548 473.184 265.759 470.615 260.976C466.347 254.631 455.028 256.072 448.74 255.112C430.322 252.297 419.578 239.917 419.378 221.501C419.022 188.968 419.422 156.775 419.115 124.272C419.034 115.476 418.622 106.359 419.884 97.6787C420.803 91.4831 424.022 85.2206 428.34 80.7093C433.29 75.4999 439.759 71.9887 446.822 70.6768C453.572 69.4743 464.94 69.8505 472.04 69.8912L507.172 70.0406C555.315 70.0206 604.153 70.3493 652.24 69.7618Z" fill="#0BBBCA"/>
<path d="M540.478 103.472L577.084 103.416L614.509 219.086C605.54 219.592 595.303 219.344 586.209 219.288C584.571 214.787 578.815 193.072 577.046 191.289C564.153 191.403 551.253 191.416 538.353 191.328L530.146 219.249C520.728 219.349 511.703 219.443 502.296 219.134C515.815 181.359 526.996 141.512 540.478 103.472Z" fill="#FEFEFE"/>
<path d="M557.522 123.136C560.234 127.433 569.597 162.533 571.765 170.003L559.29 170.059L544.247 170.094C548.997 155.699 553.39 137.983 557.522 123.136Z" fill="#11B7C9"/>
<path d="M130.43 385.838C134.582 385.594 138.636 385.432 142.711 386.488C151.205 388.701 155.753 394.307 160.079 401.451C166.968 412.826 189.71 449.601 192.844 460.151C194.217 464.776 194.454 470.344 193.166 475.013C189.806 487.194 179.411 490.344 169.903 496.163C164.298 499.594 159.83 504.544 158.434 511.113C156.355 520.894 161.176 530.588 166.47 538.488C180.55 559.488 227.285 606.451 252.347 610.838C279.433 615.588 270.836 581.694 286.639 571.726C294.5 566.769 302.646 567.088 311.37 569.001C322.967 571.551 334.475 574.701 346.001 577.563C355.553 579.938 367.09 581.632 375.846 585.988C380.084 588.101 384.271 591.513 386.715 595.619C395.446 610.263 387.396 636.407 383.496 651.963C370.834 684.076 344.081 685.832 313.805 680.907C278.76 675.288 245.116 663.001 214.696 644.713C149.32 605.076 97.6915 540.932 77.4165 466.732C67.9708 432.163 81.7865 408.876 112.52 392.482C118.918 389.069 123.352 387.469 130.43 385.838Z" fill="#0BA8DF"/>
<path d="M358.415 435.157L380.246 349.376C383.653 335.889 387.909 315.038 393.196 301.807C398.478 293.006 414.365 295.043 416.453 304.59C425.59 346.401 434.746 388.688 442.915 430.663C441.021 434.726 437.253 434.757 437.296 435.969C437.846 450.719 440.996 465.763 442.846 480.438C443.403 484.869 450.403 486.426 448.028 492.457C441.521 494.788 431.828 492.676 429.815 485.832C426.134 473.294 423.759 458.744 421.159 445.913L403.378 357.413C394.34 389.794 387.071 423.713 378.221 456.269C374.678 467.869 372.909 481.551 368.071 492.607C364.234 501.363 346.941 501.026 344.486 490.744C335.667 453.801 330.886 415.076 321.69 378.238C318.673 388.838 314.363 409.251 300.125 409.851C286.096 410.444 271.442 410.113 257.331 410.138L227.701 410.163C220.688 410.176 208.263 411.326 202.766 406.876C194.488 400.176 199.141 385.351 210.046 385.094C218.763 384.888 227.751 385.082 236.531 385.063L294.689 384.832C296.829 376.076 300.849 365.351 303.268 356.238C306.222 347.188 308.296 337.508 311.939 328.72C314.952 321.451 324.284 318.915 330.809 322.626C333.505 324.154 335.587 326.57 336.7 329.461C339.008 335.454 341.478 351.994 343.101 359.201C348.66 383.876 352.482 410.682 358.415 435.157Z" fill="url(#paint0_linear_2065_122)"/>
<path d="M432.859 639.094C505.728 617.819 567.14 568.438 603.559 501.832C626.165 460.838 638.646 415.032 639.959 368.238C640.14 362.726 640.096 357.213 639.828 351.707C639.34 342.069 636.534 328.944 646.646 322.501C647.528 321.935 648.49 321.501 649.496 321.212C657.484 318.921 665.284 325.986 666.384 333.796C676.396 404.769 655.084 482.113 617.046 541.663C583.865 593.238 536.053 633.738 479.728 657.994C468.44 662.919 452.49 669.476 440.44 672.013C429.634 675.269 420.903 676.826 409.921 678.576C413.346 666.913 416.559 654.169 419.753 642.376C424.303 641.469 428.378 640.326 432.859 639.094Z" fill="url(#paint1_linear_2065_122)"/>
<path d="M419.753 642.376C424.303 641.469 428.378 640.326 432.859 639.094L432.44 641.444C430.415 642.576 431.121 641.782 430.203 643.882C431.553 649.207 434.071 651.182 437.753 655.482C436.096 657.482 435.64 657.282 435.715 659.226L437.378 660.776C436.94 663.413 435.784 667.826 436.396 670.051C437.615 670.632 439.303 671.376 440.44 672.013C429.634 675.269 420.903 676.826 409.921 678.576C413.346 666.913 416.559 654.169 419.753 642.376Z" fill="url(#paint2_linear_2065_122)"/>
<path d="M442.915 430.663L443.703 433.944L444.453 434.307C450.765 424.388 451.69 386.744 467.753 385.669C485.028 384.513 504.559 384.988 522.059 385.013L568.684 385.082C577.903 385.063 587.021 384.932 596.24 385.238C603.765 385.488 608.846 388.919 609.934 396.807C610.371 400.026 609.396 403.282 607.265 405.732C604.015 409.507 599.815 410.113 595.053 410.144C582.021 410.244 568.884 410.094 555.846 410.094L476.79 410.113L463.571 456.701C460.578 467.276 457.384 486.607 448.028 492.457C450.403 486.426 443.403 484.869 442.846 480.438C440.996 465.763 437.846 450.719 437.296 435.969C437.253 434.757 441.021 434.726 442.915 430.663Z" fill="url(#paint3_linear_2065_122)"/>
<defs>
<linearGradient id="paint0_linear_2065_122" x1="668.978" y1="342.463" x2="205.824" y2="440.354" gradientUnits="userSpaceOnUse">
<stop stop-color="#8DE94E"/>
<stop offset="1" stop-color="#0B9EEB"/>
</linearGradient>
<linearGradient id="paint1_linear_2065_122" x1="668.978" y1="342.463" x2="205.824" y2="440.354" gradientUnits="userSpaceOnUse">
<stop stop-color="#8DE94E"/>
<stop offset="1" stop-color="#0B9EEB"/>
</linearGradient>
<linearGradient id="paint2_linear_2065_122" x1="668.978" y1="342.463" x2="205.824" y2="440.354" gradientUnits="userSpaceOnUse">
<stop stop-color="#8DE94E"/>
<stop offset="1" stop-color="#0B9EEB"/>
</linearGradient>
<linearGradient id="paint3_linear_2065_122" x1="668.978" y1="342.463" x2="205.824" y2="440.354" gradientUnits="userSpaceOnUse">
<stop stop-color="#8DE94E"/>
<stop offset="1" stop-color="#0B9EEB"/>
</linearGradient>
</defs>
</svg>
